# xmcd
#
# Track frame offsets:
#	150
#	12085
#	23975
#	43847
#	61607
#	73742
#	81590
#	96827
#	112112
#	127460
#	140647
#	154905
#	167997
#	179925
#	197827
#	213167
#	231542
#	242347
#	257282
#
# Disc length: 3675 seconds
#
# Revision: 3
# Processed by: cddbd v1.5.2PL0 Copyright (c) Steve Scherf et al.
# Submitted via: audiograbber 1.83.01
#
DISCID=200e5913
DTITLE=Various Artist - This Is Soul
DYEAR=1993
DGENRE=Soul and R&B
TTITLE0=Sam and Dave - Soul Man
TTITLE1=The Drifters - Saturday Night at the Movies
TTITLE2=James Brown - You Can't Keep a Good Man Down
TTITLE3=Percy Sledge - When a Man Loves a Woman
TTITLE4=Brook Benton - Kiddio
TTITLE5=Eddie Floyd - Knock on Wood
TTITLE6=George McCrae - Rock Your Baby
TTITLE7=Mary Wells - My Guy
TTITLE8=Dobie Gray - Feelings
TTITLE9=Ben E. King - Stand by Me
TTITLE10=Martha Reeves - You're All I Need to Get By
TTITLE11=Dionne Warwick - Only the Strong Survive
TTITLE12=The Tymes - You Little Trustmaker
TTITLE13=The Originals - Your Love Keeps Lifting Me
TTITLE14=Johnny Bristol - Someday We'll Be Together
TTITLE15=Lou Rawls - Lady Love
TTITLE16=Fats Domino - Blue Monday
TTITLE17=The Platters - Great Pretender
TTITLE18=James Brown - Bring It On
EXTD=
EXTT0=
EXTT1=
EXTT2=
EXTT3=
EXTT4=
EXTT5=
EXTT6=
EXTT7=
EXTT8=
EXTT9=
EXTT10=
EXTT11=
EXTT12=
EXTT13=
EXTT14=
EXTT15=
EXTT16=
EXTT17=
EXTT18=
PLAYORDER=
